<svg xmlns="http://www.w3.org/2000/svg" width="550" height="250" viewBox="0 0 550 250"><rect width="100%" height="100%" fill="#DDDDDD"/><path fill="#999999" d="M141.275 126.225v.65q0 7.38-3.41 11.87-3.41 4.5-9.54 4.5-2.61 0-4.64-.97t-3.48-2.85v15.97h-8.95v-46.08h8.09l.52 3.93q1.48-2.18 3.56-3.37 2.07-1.18 4.84-1.18 6.19 0 9.6 4.83 3.41 4.83 3.41 12.7Zm-8.98.65v-.65q0-4.7-1.57-7.62-1.57-2.93-4.8-2.93-2.03 0-3.46.83-1.43.83-2.26 2.37v14.58q.83 1.42 2.26 2.16 1.43.74 3.53.74 3.26 0 4.78-2.56 1.52-2.55 1.52-6.92Zm23.97-32.27v47.99h-8.99v-47.99h8.99Zm35.89 47.99h-8.98q-.49-1.14-.84-2.4-.36-1.26-.51-2.58-1.39 2.43-3.65 4.03t-5.4 1.6q-5.22 0-8.06-2.7-2.83-2.69-2.83-7.33 0-4.89 3.77-7.59 3.77-2.69 11-2.69h5.01v-2.64q0-2.4-1.26-3.72-1.26-1.33-3.72-1.33-2.18 0-3.37 1.06-1.18 1.07-1.18 2.94l-8.68-.03-.03-.18q-.21-4.22 3.66-7.28 3.88-3.06 10.19-3.06 5.96 0 9.69 3.03 3.72 3.03 3.72 8.63v13.75q0 2.34.35 4.4.36 2.06 1.12 4.09Zm-17.19-6q2.37 0 4.21-1.17 1.85-1.17 2.49-2.7v-4.71h-5.01q-2.86 0-4.34 1.43-1.47 1.43-1.47 3.46 0 1.66 1.1 2.68 1.11 1.01 3.02 1.01Zm36.48-.24q2.4 0 3.85-1.4 1.44-1.4 1.44-3.74h8.15l.1.18q.12 5.05-3.8 8.45-3.92 3.4-9.74 3.4-7.44 0-11.47-4.71t-4.03-12.09v-.92q0-7.35 4.01-12.09 4.02-4.74 11.46-4.74 6.15 0 9.92 3.51 3.77 3.5 3.65 9.23l-.06.18h-8.19q0-2.58-1.41-4.29-1.42-1.71-3.91-1.71-3.57 0-5.03 2.77-1.46 2.77-1.46 7.14v.92q0 4.46 1.46 7.18 1.46 2.73 5.06 2.73Zm33.38 6.89q-7.2 0-11.51-4.62-4.3-4.61-4.3-11.72v-1.23q0-7.41 4.07-12.21 4.08-4.8 10.94-4.77 6.74 0 10.46 4.06 3.72 4.06 3.72 10.98v4.89h-19.87l-.06.19q.24 3.29 2.2 5.41 1.95 2.13 5.3 2.13 2.99 0 4.95-.6 1.97-.6 4.31-1.9l2.43 5.54q-2.03 1.66-5.32 2.75-3.29 1.1-7.32 1.1Zm-.8-27.63q-2.49 0-3.94 1.91-1.44 1.91-1.78 5.01l.09.16h11.01v-.8q0-2.86-1.34-4.57-1.33-1.71-4.04-1.71Zm28.18-21.01v18.92q1.57-2.28 3.84-3.55 2.28-1.28 5.05-1.28 5.2 0 8.16 3.46 2.97 3.46 2.97 10.69v19.75h-8.98v-19.81q0-3.88-1.37-5.49-1.37-1.62-4.07-1.62-1.85 0-3.27.66-1.41.67-2.33 1.87v24.39h-8.99v-47.99h8.99Zm25.41 31.69v-.65q0-7.44 4.15-12.2 4.15-4.75 11.5-4.75 7.39 0 11.57 4.74 4.18 4.74 4.18 12.21v.65q0 7.5-4.16 12.22-4.17 4.73-11.53 4.73-7.38 0-11.55-4.73-4.16-4.72-4.16-12.22Zm8.95-.65v.65q0 4.55 1.6 7.3 1.6 2.76 5.16 2.76 3.48 0 5.1-2.77 1.61-2.77 1.61-7.29v-.65q0-4.43-1.63-7.23-1.63-2.8-5.14-2.8-3.47 0-5.09 2.82-1.61 2.81-1.61 7.21Zm37.43-31.04v47.99h-8.98v-47.99h8.98Zm6 32.27v-.65q0-7.87 3.4-12.7 3.4-4.83 9.58-4.83 2.5 0 4.5 1.08 1.99 1.07 3.5 3.07v-18.24h9.02v47.99h-7.73l-.73-4.06q-1.57 2.31-3.71 3.51-2.14 1.2-4.91 1.2-6.12 0-9.52-4.5-3.4-4.49-3.4-11.87Zm8.95-.65v.65q0 4.37 1.48 6.88 1.48 2.5 4.8 2.5 1.94 0 3.38-.78 1.45-.79 2.37-2.29v-14.18q-.92-1.57-2.35-2.45-1.43-.88-3.34-.88-3.29 0-4.81 2.93-1.53 2.92-1.53 7.62Zm42.73 17.02q-7.2 0-11.5-4.62-4.31-4.61-4.31-11.72v-1.23q0-7.41 4.08-12.21 4.07-4.8 10.93-4.77 6.74 0 10.46 4.06 3.72 4.06 3.72 10.98v4.89h-19.87l-.06.19q.25 3.29 2.2 5.41 1.95 2.13 5.31 2.13 2.98 0 4.95-.6 1.97-.6 4.31-1.9l2.43 5.54q-2.03 1.66-5.33 2.75-3.29 1.1-7.32 1.1Zm-.8-27.63q-2.49 0-3.93 1.91-1.45 1.91-1.79 5.01l.09.16h11.02v-.8q0-2.86-1.34-4.57-1.34-1.71-4.05-1.71Zm37.87-6.55-.95 7.97-3.29-.1q-2 0-3.3.84-1.29.83-1.96 2.33v22.49h-8.96v-33.28h8.34l.4 4.92q1.17-2.62 3.03-4.08 1.86-1.46 4.29-1.46.68 0 1.25.11t1.15.26Z"/></svg>