<svg xmlns="http://www.w3.org/2000/svg" width="150" height="150" viewBox="0 0 150 150"><rect width="100%" height="100%" fill="#DDDDDD"/><path fill="#999999" d="M36.79 75.345v.19q0 2.11-.97 3.39-.98 1.28-2.73 1.28-.74 0-1.32-.27-.58-.28-1-.82v4.57h-2.55v-13.17h2.31l.15 1.13q.42-.63 1.01-.97.6-.34 1.39-.34 1.76 0 2.74 1.38.97 1.38.97 3.63Zm-2.56.19v-.19q0-1.34-.45-2.18-.45-.83-1.37-.83-.58 0-.99.24-.41.23-.65.67v4.17q.24.4.65.61.41.22 1.01.22.93 0 1.36-.73.44-.73.44-1.98Zm6.84-9.22v13.71h-2.56v-13.71h2.56Zm10.26 13.71h-2.57q-.14-.33-.24-.69-.1-.36-.14-.73-.4.69-1.04 1.15-.65.45-1.55.45-1.49 0-2.3-.76-.81-.77-.81-2.1 0-1.4 1.08-2.17t3.14-.77h1.43v-.75q0-.69-.36-1.07-.36-.37-1.06-.37-.62 0-.96.3-.34.3-.34.84l-2.48-.01-.01-.05q-.06-1.21 1.05-2.08 1.11-.88 2.91-.88 1.7 0 2.77.87 1.06.87 1.06 2.47v3.92q0 .67.1 1.26t.32 1.17Zm-4.91-1.71q.67 0 1.2-.34.53-.33.71-.77v-1.35H46.9q-.82 0-1.24.41-.42.41-.42.99 0 .48.32.77.31.29.86.29Zm10.42-.07q.69 0 1.1-.4.41-.4.41-1.07h2.33l.03.05q.03 1.44-1.09 2.41-1.12.97-2.78.97-2.12 0-3.28-1.34-1.15-1.34-1.15-3.45v-.27q0-2.1 1.15-3.45 1.15-1.36 3.27-1.36 1.76 0 2.84 1.01 1.07 1 1.04 2.63l-.02.06h-2.34q0-.74-.4-1.23t-1.12-.49q-1.02 0-1.43.79-.42.79-.42 2.04v.27q0 1.27.42 2.05.41.78 1.44.78Zm9.54 1.96q-2.06 0-3.29-1.31-1.23-1.32-1.23-3.35v-.35q0-2.12 1.17-3.49 1.16-1.37 3.12-1.37 1.92 0 2.99 1.16 1.06 1.16 1.06 3.14v1.4h-5.68l-.01.05q.07.94.62 1.55.56.61 1.52.61.85 0 1.42-.18.56-.17 1.23-.54l.69 1.59q-.58.47-1.52.78-.94.31-2.09.31Zm-.23-7.89q-.71 0-1.13.55-.41.54-.51 1.43l.03.04h3.15v-.23q0-.81-.38-1.3-.39-.49-1.16-.49Zm8.05-6v5.4q.45-.65 1.1-1.01.65-.37 1.44-.37 1.49 0 2.33.99.85.99.85 3.06v5.64h-2.56v-5.66q0-1.11-.4-1.57-.39-.46-1.16-.46-.53 0-.93.19-.41.19-.67.53v6.97h-2.57v-13.71h2.57Zm7.26 9.05v-.18q0-2.13 1.19-3.49 1.18-1.36 3.28-1.36 2.11 0 3.31 1.36 1.19 1.35 1.19 3.49v.18q0 2.15-1.19 3.5-1.19 1.34-3.29 1.34-2.11 0-3.3-1.34-1.19-1.35-1.19-3.5Zm2.56-.18v.18q0 1.3.45 2.09.46.79 1.48.79.99 0 1.46-.8.46-.79.46-2.08v-.18q0-1.27-.47-2.07-.46-.8-1.47-.8-.99 0-1.45.81-.46.8-.46 2.06Zm10.69-8.87v13.71h-2.56v-13.71h2.56Zm1.72 9.22v-.19q0-2.25.97-3.63t2.74-1.38q.71 0 1.28.31.57.31 1 .88v-5.21H105v13.71h-2.21l-.21-1.16q-.45.66-1.06 1-.61.34-1.4.34-1.75 0-2.72-1.28-.97-1.28-.97-3.39Zm2.56-.19v.19q0 1.25.42 1.96.42.72 1.37.72.55 0 .97-.22.41-.23.67-.66v-4.05q-.26-.45-.67-.7-.41-.25-.95-.25-.94 0-1.38.83-.43.84-.43 2.18Zm12.2 4.86q-2.05 0-3.28-1.31-1.23-1.32-1.23-3.35v-.35q0-2.12 1.16-3.49 1.17-1.37 3.13-1.37 1.92 0 2.98 1.16 1.07 1.16 1.07 3.14v1.4h-5.68l-.02.05q.07.94.63 1.55.56.61 1.52.61.85 0 1.41-.18.56-.17 1.23-.54l.7 1.59q-.58.47-1.52.78-.95.31-2.1.31Zm-.22-7.89q-.72 0-1.13.55-.41.54-.51 1.43l.03.04h3.14v-.23q0-.81-.38-1.3t-1.15-.49Zm10.81-1.87-.27 2.28-.94-.03q-.57 0-.94.24-.37.23-.56.67v6.42h-2.56v-9.51h2.38l.12 1.41q.33-.75.86-1.17.53-.42 1.23-.42.19 0 .35.04.17.03.33.07Z"/></svg>